<?xml version="1.0" ?><svg xmlns="http://www.w3.org/2000/svg" viewBox="0 0 62.365097 70.935501" height="70.935501mm" width="62.365097mm">

    <path d="m 19788.065,2204.1462 c -12.708,-0.1654 -25.053,3.5988 -32.13,10.7598 -0.982,1.2102 -5.753,3.0091 -6.999,2.6387 -20.221,-3.8997 -44.447,-1.7136 -63.648,4.5722 l -2.123,-1.8632 c -8.845,-17.2814 -22.811,-12.2895 -29.625,-10.4375 -19.502,5.3011 -40.946,24.9873 -38.711,47.5429 0.522,5.2717 3.115,12.396 12.559,9.7852 9.619,-3.2271 21.053,-16.0092 32.257,-20.9219 5.627,-2.4675 6.457,2.2595 5.118,6.4707 -4.845,15.2399 -38.194,49.5395 -58.59,57.6563 -11.359,0.3467 -8.071,14.4896 0.201,18.1484 1.873,0 3.346,1.221 3.346,2.7734 3.677,23.1874 40.824,42.3493 71.349,35.3643 2.918,-0.9874 9.307,-1.9555 12.223,-2.7217 -1.759,5.7628 -4.334,9.9104 -4.605,12.1154 -18.534,6.1509 -49.893,17.9203 -58.129,32.619 -8.293,15.015 -13.253,34.2599 -5.395,50.1113 5.59,10.8418 17.254,17.9176 28.156,10.2929 8.842,-3.3877 10.232,-13.5327 12.173,-23.4355 1.94,-9.9027 4.432,-19.5632 15.478,-21.9816 -1.7,6.2551 -0.621,16.051 -1.289,22.5634 -1.571,17.6663 15.314,9.8779 13.806,1.7756 -0.906,-32.6079 14.177,-84.4537 21.083,-92.1702 19.698,-10.2318 33.92,-22.3919 46.675,-34.5915 4.192,-4.0098 16.637,-19.8793 16.637,-23.7891 -0.229,-3.9806 -5.5,-8.6882 -10.889,-4.5468 -12.421,12.8219 -13.998,17.3125 -29.722,28.5911 0.184,-9.6092 -2.764,-17.8239 -7.34,-24.2767 -3.585,-3.4863 -10.272,-0.076 -8.383,5.5313 3.16,7.0409 2.535,14.2913 0.689,22.0195 0,1.5874 -2.548,6.0603 -4.48,7.8652 -12.235,11.0561 -42.633,21.0597 -58.127,19.2051 -10.958,-1.3117 -22.371,-8.3357 -29.901,-16.4277 -4.566,-4.9957 -4.669,-5.3292 -2.119,-6.834 7.877,-3.575 12.972,-10.5703 8.655,-16.5879 -2.171,-2.991 -2.185,-3.8687 -0.08,-4.7832 18.35,-9.2831 31.268,-23.3475 36.98,-43.3477 9.175,-18.0721 3.036,-28.4753 -8.147,-29.8535 -6.515,-0.7964 -11.266,1.365 -17.189,5.5957 -2.863,2.0312 -8.253,5.2862 -4.621,-0.1797 2.683,-2.5033 4.749,-7.9518 4.934,-13.0175 0.423,-6.0015 11.117,-11.1807 17.793,-4.6485 2.964,2.4488 3.669,3.3706 3.689,4.8399 0.236,5.6982 17.17,10.1317 22.881,8.3222 3.365,-1.53 4.879,-3.925 10.002,-0.1933 7.924,8.0653 34.121,8.0621 40.92,-7.3008 0.976,-2.1836 5.67,-2.8525 7.578,-1.0801 2.835,2.5319 7.702,2.6117 10.953,0.9531 15.284,-12.4499 33.324,-16.9836 50.873,-2.8925 8.827,7.088 5.935,12.0657 -6.295,9.582 -5.697,-1.1533 -12.169,-2.461 -21.998,-3.0391 -7.31,-0.5815 -12.973,6.1165 -13.299,14.5899 -0.17,5.1759 3.238,8.6989 4.842,12.8554 4.065,13.4484 13.883,30.4823 17.775,46.9024 1.438,5.8764 0.214,5.2598 -4.498,9.6797 -8.156,7.9671 -16.603,19.9814 -19.326,32.3008 -0.871,3.4466 0.966,18.2796 -4.697,18.2207 -34.342,7.0731 -40.817,33.469 -43.796,65.1027 -1.198,12.7344 6.903,27.3577 15.13,33.0203 8.797,5.8492 13.636,2.3313 19.348,-2.5332 10.781,-9.1821 9.316,-23.8209 11.711,-33.8455 1.013,-4.24 11.853,-17.4271 11.976,-11.7616 5.881,20.4231 25.99,17.3135 36.633,9.3672 1.278,6.4111 1.445,7.8195 1.445,11.957 -0.187,5.6988 0.518,15.2354 4.252,16.6987 5.221,3.6619 14.713,0.7856 12.078,-10.2866 -0.676,-7.0058 -4.341,-29.2103 -4.854,-37.7619 -5.475,-52.3065 -23.21,-108.2062 -43.501,-156.1717 -4.603,-3.9816 -1.598,-10.2002 4.783,-7.9648 8.949,-0.1095 26.401,8.1989 37.514,7.6113 9.004,-1.7358 5.003,-8.3863 2.746,-17.166 -4.811,-18.7095 -24.161,-27.3481 -42.735,-27.5899 z m -54.634,46.0391 c -0.675,0.01 -1.414,0.1042 -2.221,0.3008 -3.227,-0.031 -4.852,2.1728 -5.885,7.9844 -0.992,5.5833 -0.552,8.4333 1.617,10.4433 6.837,6.1694 10.929,-4.5928 12.832,-11.1601 -0.02,-3.4265 -1.618,-7.6258 -6.343,-7.5684 z m -29.598,4.1641 c -2.459,-0.05 -4.571,0.8394 -5.281,2.6914 -2.079,6.0648 -3.183,15.1838 2.674,19.0195 6.217,1.2021 9.06,-1.9369 10.378,-8.2461 1.345,-6.5075 1.246,-9.0055 -0.412,-10.5156 -2.096,-1.9093 -4.9,-2.8991 -7.359,-2.9492 z m 64.844,126.0132 c 2.428,1.9797 9.283,6.2055 12.193,6.2055 4.588,2.2765 0.843,7.8873 -2.73,8.791 -26.541,6.1289 -22.252,27.6829 -30.622,45.0469 -4.669,8.3458 -7.616,7.6758 -9.756,-2.8068 -3.532,-17.3049 6.362,-44.7418 17.532,-52.1502 4.624,-3.067 13.383,-5.0864 13.383,-5.0864 z m -82.457,13.2504 c -2.669,5.8561 -1.86,11.0149 -4.123,15.0821 -0.786,5.5572 -22.87,3.4601 -29.172,27.7793 -3.338,10.0127 -11.486,25.7546 -15.246,8.7695 -1.475,-7.604 0.504,-15.1169 3.039,-20.2637 8.087,-16.0492 24.69,-24.4998 45.502,-31.3672 z" fill="#593600" transform="translate(182.2705,-122.27605) matrix(0.26458333,0,0,0.26458333,-5367.8007,-460.90291)"/>
</svg>
