<svg enable-background="new 0 0 48 48" viewBox="0 0 48 48" xmlns="http://www.w3.org/2000/svg"><path d="m5 38v-24h38v24c0 2.2-1.8 4-4 4h-30c-2.2 0-4-1.8-4-4z" fill="#cfd8dc"/><path d="m43 10v6h-38v-6c0-2.2 1.8-4 4-4h30c2.2 0 4 1.8 4 4z" fill="#f44336"/><g fill="#b71c1c"><circle cx="33" cy="10" r="3"/><circle cx="15" cy="10" r="3"/></g><g fill="#b0bec5"><path d="m33 3c-1.1 0-2 .9-2 2v5c0 1.1.9 2 2 2s2-.9 2-2v-5c0-1.1-.9-2-2-2z"/><path d="m15 3c-1.1 0-2 .9-2 2v5c0 1.1.9 2 2 2s2-.9 2-2v-5c0-1.1-.9-2-2-2z"/></g><g fill="#90a4ae"><path d="m13 20h4v4h-4z"/><path d="m19 20h4v4h-4z"/><path d="m25 20h4v4h-4z"/><path d="m31 20h4v4h-4z"/><path d="m13 26h4v4h-4z"/><path d="m19 26h4v4h-4z"/><path d="m25 26h4v4h-4z"/><path d="m31 26h4v4h-4z"/><path d="m13 32h4v4h-4z"/><path d="m19 32h4v4h-4z"/><path d="m25 32h4v4h-4z"/><path d="m31 32h4v4h-4z"/></g></svg>