<?xml version="1.0" ?><svg xmlns="http://www.w3.org/2000/svg" viewBox="0 0 72.498657 80.63015" height="80.63015mm" width="72.498657mm">
    <path transform="translate(292.49982,-128.07809) matrix(0.25277615,0,0,0.25277615,-5264.7199,-692.73044) translate(-3313.5291,-2437.8203)" d="m 23024.486,5684.9961 c -10.069,-0.076 -19.07,17.4026 -20.461,29.125 -0.232,13.0248 -2.889,16.9021 3.991,39.2051 -0.205,29.0243 -21.161,136.3801 -23.668,183.0449 0.527,10.9859 -2.737,19.7994 3.685,29.0254 5.097,5.3986 7.375,4.1883 12.363,1.8691 3.779,-1.7573 3.019,-15.6171 2.301,-25.584 -0.787,-21.5095 4.066,-47.5511 7.059,-83.5332 0.5,-5.9094 0.609,-6.0368 4.502,-5.205 3.475,0.7141 7.384,0.1706 11.021,-0.5606 3.266,-0.5631 8.026,-1.7487 9.323,-5.0644 2.366,-8.2237 -13.254,-5.5641 -19.586,-7.5372 -2.439,-0.7316 -2.458,-0.7638 -2.043,-3.7597 0.315,-2.2796 -0.144,-1.5586 1.197,-4.3906 2.053,-0.023 4.318,-0.264 6.697,0.5839 6.532,0.5214 12.5,-0.5272 14.254,-2.5019 3.719,-4.3957 -1.15,-6.9554 -5.693,-8.7813 -4.454,-1.7896 -8.992,-1.3493 -13.668,-1.7597 -0.03,-1.4241 -0.287,-2.4531 -0.151,-3.1133 0.201,-0.9763 0.959,-1.1458 4.055,-0.9102 13.171,1.0034 14.429,0.901 17.297,-1.4101 9.122,-7.6093 -5.197,-10.4868 -11.988,-11.0391 -5.061,-0.728 -7.059,-1.2406 -7.287,-1.8652 2.357,-17.1839 4.053,-22.6187 7.164,-40.8574 1.447,-10.7846 -14.115,-26.9759 -6.436,-43.7325 1.914,-6.12 3.187,-9.0545 4.924,-9.25 1.043,-0.1174 2.253,0.7513 3.865,2.5098 5.198,5.5393 2.019,26.1831 15.565,30.8106 6.61,3.029 12.331,1.5784 18.355,1.7832 -0.759,3.6812 -0.365,6.1184 1.897,9.8027 2.112,3.3698 3.839,3.9637 6.363,2.1875 1.922,-1.3535 2.806,-5.3265 4.623,-11.1875 0.642,-2.0098 6.898,-5.4399 8.369,0.1133 1.411,5.3258 0.311,6.9105 2.77,10.6523 2.789,3.4732 5.857,6.2331 9.138,-1.209 1.255,-2.7205 1.724,-6.4968 1.869,-10.5859 1.006,-4.8799 3.869,-3.8001 8.049,-1.3027 1.905,4.3548 2.631,7.649 6.694,9.5918 3.576,0.6624 5.729,-3.0692 6.902,-6.6504 1.132,-2.7926 1.135,-2.7936 4.445,-2.5567 1.823,0.1304 6.37,0.8367 10.104,1.5684 11.288,1.7477 17.068,-15.7079 21.896,-25.0488 2.903,-5.1201 6.514,-3.6802 8.692,2.6171 -0.1,10.6005 -0.917,23.6532 1.337,29.5137 6.437,22.7628 12.668,48.6531 7.889,79.0078 -7.05,4.5275 -18.075,-7.5 -18.472,-16.7871 7.223,-1.8057 13.967,-17.5022 -0.163,-20.2754 -4.443,-1.4228 -7.08,-1.76 -16,-2.0468 -14.516,-0.266 -15.221,17.4044 -0.39,20.2207 3.985,4.327 -6.533,22.9031 -11.873,25.9414 -7.818,4.4504 -15.263,-2.0827 -21.102,-7.1504 -1.991,-2.2697 -7.177,-2.5345 -8.521,-0.4356 -3.605,6.8347 13.939,19.8471 20.826,21.8379 9.692,3.2397 18.763,-0.042 24.33,-8.1562 2.45,-3.9384 4.819,-7.3107 6.826,-11.4844 2.683,-3.3158 1.98,0.015 4.172,2.7422 3.119,5.2452 10.753,11.0991 18.465,10.8594 1.528,24.2164 2.947,41.3604 3.996,55.1484 0.835,10.9767 5.599,51.7646 5.599,51.7646 3.09,29.4145 19.025,15.55 17.558,1.5865 -0.747,-7.1101 1.116,-10.1135 0.19,-27.1421 9.469,2.3177 25.944,11.7346 32.057,27.3811 14.453,26.3172 43.941,6.8285 40.912,-16.8398 -2.419,-9.9227 -4.058,-19.8213 -9.541,-29.9883 -17.757,-30.9782 -47.705,-29.7743 -72.715,-30.0156 -2.946,-36.1208 1.447,-76.4461 -4.156,-114.7012 -1.181,-7.1498 -2.625,-14.6399 -4.412,-22.5312 -3.503,-14.5191 1.844,-31.0073 -8.287,-44.3047 -4.15,-4.7151 -12.9,-4.7272 -18.658,-0.014 -9.824,9.8137 -14.632,20.0149 -25.49,31.5508 -34.538,-2.7348 -51.602,0.119 -76.569,-1.5625 -5.538,-8.498 -8.084,-16.5887 -12.476,-26.0391 -4.405,-9.4778 -9.203,-13.1393 -13.78,-13.1738 z m 85.91,76.4824 c -3.772,-0.058 -6.146,2.7867 -7.474,8.7656 -0.679,3.102 -0.88,8.2349 2.547,11.6446 1.86,1.5986 6.983,1.3674 9.592,0.4316 4.266,-1.9153 8.697,-17.0343 -0.413,-19.8242 -1.581,-0.656 -2.995,-0.9981 -4.252,-1.0176 z m -41.523,0.961 c -6.325,0 -7.495,6.5923 -6.906,13.1035 0.561,5.8663 4.117,9.4305 9.984,10.209 5.243,-0.8197 7.143,-6.0524 8.131,-14.0762 -0.02,-7.1638 -2.488,-9.1923 -11.209,-9.2363 z m 3.768,122.9082 c -1.488,4.7628 3.719,12.3276 8.472,13.3906 19.29,5.9141 26.176,30.5636 25.358,47.625 -0.471,6.8222 0.909,13.8242 -2.137,21.2988 -0.786,2.4408 -1.298,3.0876 -2.604,3.2988 -4.554,0.8513 -2.979,8.0109 -5.373,11.0645 -2.241,0.847 -2.266,0.047 -0.345,-9.0254 1.175,-5.5322 3.897,-16.28 -6.102,-13.7559 -1.775,0.8856 -3.488,4.9712 -4.828,11.4727 -0.746,3.639 -1.568,6.5716 -1.828,6.5176 -4.649,-2.071 -4.409,-30.4338 -5.69,-34.1035 1.223,-18.9543 -16.415,-30.7094 -26.619,-33.295 -13.2,-3.3448 -15.54,6.0182 -6.138,12.8457 -0.237,-0.035 -0.469,-0.079 -0.705,-0.1152 23.457,19.7436 9.477,36.2743 19.859,56.6231 10.218,20.0284 40.883,38.6817 52.1,10.2402 1.681,-4.2637 3.117,-8.3578 4.332,-12.2949 4.971,-21.4939 5.518,-39.2705 0.349,-57.6086 -7.277,-25.81 -17.872,-29.2998 -27.568,-35.0843 -9.011,-3.8086 -18.406,-5.2418 -20.533,0.9058 z m 176.336,34.9628 c -3.327,5.5255 -5.073,5.8752 -3.178,18.584 1.709,5.2753 -1.512,7.0526 -5.41,0.586 -11.99,-17.2961 -25.043,-28.567 -43.936,-28.1465 -3.186,-1.3364 -5.769,-18.7103 -2.867,-18.1797 24.207,-6.6481 49.407,10.1366 55.391,27.1562 z" fill="#593600"/>
</svg>
